<svg width="933" height="807" viewBox="0 0 933 807" fill="none" xmlns="http://www.w3.org/2000/svg">
<rect id="meetingRoom3" opacity="0.2" x="542" y="593" width="386" height="204" fill="#009951"/>
<rect id="lounge"opacity="0.2" x="407" y="269" width="276" height="256" fill="#009951"/>
<rect id="meetingRoom1" opacity="0.2" width="287" height="216" fill="#009951"/>
<rect id="meetingRoom2" opacity="0.2" y="400" width="244" height="407" fill="#009951"/>
<rect id="locker" opacity="0.2" x="610" y="13" width="117" height="164" fill="#009951"/>
<rect id="reception" opacity="0.2" x="827" y="44" width="53" height="143" fill="#009951"/>
<rect id="studyZone1" opacity="0.2" x="707" y="296" width="127" height="209" fill="#009951"/>
<rect id="studyZone2" opacity="0.2" x="38" y="269" width="210" height="91" fill="#009951"/>
<rect id="computerCenter" opacity="0.2" x="305" y="287" width="87" height="91" fill="#009951"/>
<rect id="bookshelf1" x="359" y="66" width="25" height="150" fill="#D9D9D9"/>
<rect id="bookshelf2" x="430" y="66" width="25" height="150" fill="#D9D9D9"/>
<rect id="bookshelf3" x="318" y="579" width="25" height="150" fill="#D9D9D9"/>
<rect id="bookshelf4" x="392" y="579" width="25" height="150" fill="#D9D9D9"/>
<rect id="bookshelf5" x="908" y="269" width="25" height="310" fill="#D9D9D9"/>
<rect id="bookshelf6" x="248" y="487" width="25" height="310" fill="#D9D9D9"/>
<rect id="bookshelf7" x="293" y="4" width="18" height="212" fill="#D9D9D9"/>
<path id="bookshelf8" d="M312.5 22V4L604.5 4V22L312.5 22Z" fill="#D9D9D9"/>
<path id="bookshelf9" d="M604.5 583.5V565.5H896.5V583.5H604.5Z" fill="#D9D9D9"/>
<rect id="bookshelf10" x="506" y="66" width="25" height="150" fill="#D9D9D9"/>
</svg>
