<svg width="1177" height="757" viewBox="0 0 1177 757" fill="none" xmlns="http://www.w3.org/2000/svg">
<rect id="locker" opacity="0.2" x="999" y="475" width="178" height="282" fill="#96F8FF"/>
<rect id="meetingRoom1" opacity="0.2" x="420" y="273" width="295" height="191" fill="#96F8FF"/>
<rect id="computerArea1" opacity="0.2" x="111" y="659" width="240" height="79" fill="#96F8FF"/>
<rect id="computerArea3" opacity="0.2" x="479" y="475" width="158" height="39" fill="#96F8FF"/>
<rect id="table1" opacity="0.2" x="50" y="383" width="69" height="107" fill="#96F8FF"/>
<rect id="computerArea2" opacity="0.2" x="36" y="576" width="57" height="126" fill="#96F8FF"/>
<rect id="table2" opacity="0.2" x="750" y="320" width="69" height="107" fill="#96F8FF"/>
<rect id="circlebookshelf" opacity="0.2" x="797" y="519" width="81" height="87" fill="#96F8FF"/>
<rect id="reception" opacity="0.2" x="726" y="646" width="164" height="44" fill="#96F8FF"/>
<rect id="lounge1" opacity="0.2" x="130" y="417" width="221" height="209" fill="#96F8FF"/>
<rect id="lounge2" opacity="0.2" x="934" y="232" width="158" height="185" fill="#96F8FF"/>
<rect id="studyZone2" opacity="0.2" x="267" y="81" width="98" height="276" fill="#96F8FF"/>
<rect id="meetingRoom2" opacity="0.2" x="413" y="626" width="295" height="123" fill="#96F8FF"/>
<rect id="meetingRoom3" opacity="0.2" x="962" width="215" height="182" fill="#96F8FF"/>
<rect id="studyZone1" opacity="0.2" x="437" y="68" width="453" height="100" fill="#96F8FF"/>
<rect id="bookshelf1" y="20" width="193" height="17" fill="#B09B9C"/>
<rect id="bookshelf2" x="29" y="151" width="193" height="17" fill="#B09B9C"/>
<rect id="bookshelf3" x="29" y="215" width="193" height="17" fill="#B09B9C"/>
<rect id="bookshelf4" x="29" y="279" width="193" height="17" fill="#B09B9C"/>
<rect id="bookshelf5" x="29" y="348" width="193" height="17" fill="#B09B9C"/>
<rect id="bookshelf6" x="437" y="188" width="193" height="17" fill="#B09B9C"/>
<rect id="bookshelf7" x="697" y="188" width="193" height="17" fill="#B09B9C"/>
<rect id="bookshelf8" x="1013" y="427" width="144" height="17" fill="#B09B9C"/>
<rect id="bookshelf9" x="1005" y="196" width="144" height="17" fill="#B09B9C"/>
<rect id="bookshelf10" x="29" y="82" width="193" height="17" fill="#B09B9C"/>
<rect id="bookshelf11" x="193" y="20" width="193" height="17" fill="#B09B9C"/>
<rect id="bookshelf12" x="386" y="20" width="18" height="140" fill="#B09B9C"/>
<rect id="bookshelf13" x="860" y="277" width="18" height="187" fill="#B09B9C"/>
<rect id="bookshelf14" x="1139" y="219" width="18" height="202" fill="#B09B9C"/>
</svg>
